<?xml version="1.0" standalone="no"?>
<!DOCTYPE svg PUBLIC "-//W3C//DTD SVG 20010904//EN"
 "http://www.w3.org/TR/2001/REC-SVG-20010904/DTD/svg10.dtd">
<svg version="1.0" xmlns="http://www.w3.org/2000/svg"
 width="191.000000pt" height="191.000000pt" viewBox="0 0 191.000000 191.000000"
 preserveAspectRatio="xMidYMid meet">
<metadata>
Created by potrace 1.14, written by Peter Selinger 2001-2017
</metadata>
<g transform="translate(0.000000,191.000000) scale(0.100000,-0.100000)"
fill="#000000" stroke="none">
<path d="M912 1818 l-2 -77 40 18 c56 25 57 28 11 36 -39 6 -40 7 -44 53 -2
32 -4 23 -5 -30z"/>
<path d="M968 1743 c-53 -14 -58 -18 -58 -43 l0 -28 -108 -3 c-98 -4 -114 -7
-174 -37 -74 -36 -139 -101 -169 -168 -29 -65 -43 -178 -31 -249 l11 -60 -5
67 c-12 171 49 318 160 383 66 39 133 55 229 55 l87 0 0 -98 c0 -54 2 -101 5
-103 2 -3 32 -1 67 3 166 20 223 21 255 5 69 -36 99 -99 128 -266 12 -68 13
-109 5 -222 -13 -166 -28 -228 -83 -339 -35 -70 -48 -88 -79 -103 -20 -10 -47
-34 -58 -53 -44 -71 -80 -71 -146 1 -78 84 -83 80 -86 -77 l-3 -133 -40 4
c-129 11 -286 174 -348 362 -9 25 -26 119 -38 208 -12 88 -24 159 -27 156 -6
-5 13 -156 34 -274 43 -237 209 -440 382 -467 l42 -7 0 -100 0 -100 53 6 c56
7 213 80 257 119 61 56 71 77 66 142 l-6 61 13 -39 c16 -47 17 -46 52 64 27
83 27 91 26 310 -1 238 3 279 39 484 20 115 22 138 11 204 -6 42 -16 81 -22
88 -27 32 -120 67 -183 68 -35 0 -62 4 -59 9 7 12 136 7 178 -8 21 -8 41 -12
43 -10 6 6 -32 56 -71 93 -32 32 -38 33 -113 34 -99 0 -150 -13 -191 -51 -18
-17 -33 -26 -33 -21 0 16 69 68 106 80 20 7 60 16 88 20 l51 7 -40 18 c-53 24
-146 28 -217 8z"/>
<path d="M1135 1153 c-108 -22 -155 -37 -147 -45 5 -5 44 -5 96 1 48 6 117 7
154 4 60 -6 66 -5 54 9 -21 26 -104 43 -157 31z"/>
<path d="M580 1132 l-35 -16 135 -6 c74 -4 142 -10 151 -14 9 -4 21 -1 27 7
10 12 -2 17 -70 31 -104 20 -163 20 -208 -2z"/>
<path d="M442 1110 c0 -19 4 -48 8 -65 7 -27 8 -28 8 -5 1 14 -3 43 -7 65 l-9
40 0 -35z"/>
<path d="M386 1064 c-17 -45 3 -146 44 -220 22 -40 21 -36 -11 53 -26 73 -24
123 7 123 19 0 18 25 -2 44 -20 20 -30 20 -38 0z"/>
<path d="M1426 1054 c-20 -19 -21 -44 -2 -44 34 0 30 -92 -5 -162 -11 -21 -19
-41 -19 -45 1 -4 10 10 22 32 38 72 58 177 42 219 -8 20 -18 20 -38 0z"/>
<path d="M1406 884 c-4 -14 -5 -28 -3 -31 3 -2 8 8 11 23 4 14 5 28 3 31 -3 2
-8 -8 -11 -23z"/>
<path d="M955 681 c-11 -5 -23 -7 -27 -4 -5 2 -8 -11 -8 -30 0 -31 3 -34 48
-49 26 -9 74 -26 106 -38 66 -24 112 -21 143 8 11 9 13 13 6 8 -21 -14 -60 2
-116 48 -83 67 -105 75 -152 57z"/>
</g>
</svg>
