<svg width="17" height="17" viewBox="0 0 17 17" fill="none" xmlns="http://www.w3.org/2000/svg">
<path d="M15.4361 11.4789L11.747 9.82807C11.604 9.76618 11.4478 9.74091 11.2926 9.75455C11.1374 9.76819 10.988 9.82031 10.858 9.90619C10.8476 9.91278 10.8376 9.92009 10.8283 9.92807L8.89074 11.5797C8.84763 11.606 8.79869 11.6212 8.74826 11.6241C8.69784 11.6269 8.64749 11.6173 8.60168 11.5961C7.33291 10.9836 6.01961 9.68041 5.4071 8.42649C5.38543 8.38102 5.37538 8.33088 5.37783 8.28057C5.38028 8.23026 5.39517 8.18135 5.42116 8.1382L7.07744 6.16864C7.08525 6.15927 7.09228 6.14911 7.09931 6.13896C7.18493 6.00911 7.2369 5.86001 7.25054 5.70507C7.26418 5.55014 7.23906 5.39425 7.17744 5.25144L5.52351 1.56858C5.44366 1.38205 5.30546 1.22646 5.12965 1.12517C4.95384 1.02388 4.74991 0.982367 4.54849 1.00685C3.56533 1.13648 2.66298 1.61957 2.00997 2.36588C1.35696 3.1122 0.997953 4.07071 1.00001 5.06238C1.00001 11.0937 5.90633 16 11.9377 16C12.9293 16.0021 13.8878 15.6431 14.6342 14.9901C15.3805 14.3371 15.8636 13.4347 15.9932 12.4515C16.0175 12.251 15.9764 12.0481 15.876 11.8728C15.7757 11.6975 15.6214 11.5594 15.4361 11.4789ZM15.3752 12.3734C15.2649 13.206 14.8551 13.97 14.2224 14.5224C13.5898 15.0748 12.7776 15.3779 11.9377 15.375C6.25164 15.375 1.62502 10.7484 1.62502 5.06238C1.62211 4.22248 1.9252 3.41028 2.47763 2.77762C3.03006 2.14496 3.794 1.73515 4.62662 1.62483C4.63911 1.62405 4.65163 1.62405 4.66412 1.62483C4.72577 1.62536 4.78589 1.64411 4.83691 1.67872C4.88793 1.71334 4.92757 1.76227 4.95084 1.81936L6.60009 5.50223C6.61933 5.54724 6.62773 5.59614 6.62461 5.645C6.62149 5.69385 6.60693 5.74128 6.58212 5.78348L4.92663 7.75226C4.91881 7.76242 4.911 7.77179 4.90397 7.78273C4.81577 7.9176 4.76383 8.07293 4.75315 8.23373C4.74248 8.39453 4.77343 8.55536 4.84303 8.70071C5.52195 10.0906 6.92196 11.4804 8.32745 12.1594C8.47379 12.2285 8.63554 12.2586 8.79696 12.2467C8.95837 12.2348 9.11395 12.1813 9.24856 12.0914L9.27747 12.0695L11.2173 10.4195C11.2588 10.3941 11.3058 10.379 11.3542 10.3753C11.4027 10.3717 11.4514 10.3796 11.4962 10.3984L15.1846 12.0515C15.2468 12.0774 15.299 12.1228 15.3334 12.1808C15.3677 12.2388 15.3824 12.3064 15.3752 12.3734Z" fill="white" stroke="white" stroke-width="0.2"/>
</svg>
